<svg width="140" height="69" viewBox="0 0 140 69" fill="none" xmlns="http://www.w3.org/2000/svg">
<path d="M0.972534 68.306V49.8547H11.8642C13.6546 49.8547 15.072 50.2298 15.9672 51.0548C16.8624 51.8049 17.3846 53.005 17.3846 54.5051C17.3846 55.2551 17.2354 55.9301 16.937 56.4552C16.6386 56.9802 16.2656 57.5053 15.6688 57.8803C16.6386 58.4803 17.3846 59.1554 17.9068 59.9804C18.429 60.8055 18.6528 61.7805 18.6528 62.8306C18.6528 64.5557 18.1306 65.9058 17.0116 66.8809C15.8926 67.856 14.4006 68.381 12.461 68.381H0.972534V68.306ZM3.28514 57.1302H12.088C13.0578 57.1302 13.8038 56.9052 14.326 56.4552C14.8482 56.0051 15.072 55.4051 15.072 54.58C15.072 53.68 14.8482 53.08 14.326 52.6299C13.8038 52.1799 13.0578 51.9549 12.088 51.9549H3.28514V57.1302ZM3.28514 66.2058H12.9086C13.953 66.2058 14.7736 65.9058 15.3704 65.3058C15.9672 64.7057 16.2656 63.8057 16.2656 62.7556C16.2656 61.7055 15.9672 60.8805 15.3704 60.2054C14.7736 59.5304 13.953 59.2304 12.9086 59.2304H3.28514V66.2058Z" fill="white"/>
<path d="M20.2195 68.3062L27.4558 53.9802H28.8732L36.184 68.3062H33.7968L31.9318 64.7059H24.3972L22.5321 68.3062H20.2195ZM25.367 62.8308H30.962L28.2018 57.3554L25.367 62.8308Z" fill="white"/>
<path d="M38.2725 68.3059V54.0549H40.5105V60.4304L48.0451 54.0549H50.9545L44.9865 59.1553L51.8497 68.3809H49.3879L43.4945 60.5054L40.5851 62.9805V68.3809H38.2725V68.3059Z" fill="white"/>
<path d="M54.4612 68.3059V54.0549H56.6993V60.4304L64.2339 54.0549H67.1433L61.1753 59.1553L68.0385 68.3809H65.5767L59.6833 60.5054L56.7739 62.9805V68.3809H54.4612V68.3059Z" fill="white"/>
<path d="M77.513 68.7563C74.9766 68.7563 72.8878 68.0062 71.2466 66.5811C69.6054 65.1561 68.7848 63.3559 68.7848 61.1808C68.7848 59.0057 69.6054 57.2055 71.2466 55.7804C72.8878 54.3553 74.9766 53.6803 77.513 53.6803C80.0494 53.6803 82.1382 54.3553 83.7794 55.7804C85.4206 57.2055 86.2413 59.0057 86.2413 61.1808C86.2413 63.3559 85.4206 65.1561 83.7794 66.5811C82.1382 68.0812 80.0494 68.7563 77.513 68.7563ZM77.513 66.6562C79.378 66.6562 80.9446 66.1311 82.1382 65.081C83.3319 64.031 83.9286 62.7559 83.9286 61.1058C83.9286 59.5307 83.3319 58.1806 82.1382 57.2055C80.9446 56.1554 79.378 55.6304 77.513 55.6304C75.648 55.6304 74.0814 56.1554 72.8878 57.2055C71.6942 58.2556 71.0974 59.5307 71.0974 61.1808C71.0974 62.8309 71.6942 64.106 72.8878 65.1561C74.0814 66.2061 75.5734 66.6562 77.513 66.6562Z" fill="white"/>
<path d="M89.822 54.0549H92.06V63.2055C92.06 64.5556 92.3585 65.5307 93.0299 65.9807C93.7013 66.4308 94.9694 66.7308 96.8345 66.7308C98.7741 66.7308 100.042 66.5058 100.714 65.9807C101.385 65.5307 101.683 64.5556 101.683 63.2055V54.0549H103.922V63.8056C103.922 65.5307 103.399 66.8058 102.28 67.6308C101.161 68.3809 99.3709 68.8309 96.9091 68.8309C94.4473 68.8309 92.6569 68.4559 91.5378 67.7058C90.4188 66.9558 89.8966 65.6807 89.8966 63.8806V54.0549H89.822Z" fill="white"/>
<path d="M111.083 60.4308C111.083 60.4308 111.083 65.6061 111.083 68.3813H108.845V54.1304H118.618C120.035 54.1304 121.229 54.5054 122.049 55.1804C122.87 55.8555 123.317 56.8305 123.317 58.1056C123.317 59.1557 123.019 59.9808 122.348 60.7308C121.676 61.4809 120.856 61.9309 119.811 62.0809L123.765 68.3813H121.378L117.349 62.1559L115.857 60.0558H118.692C119.438 60.0558 120.035 59.9057 120.483 59.5307C120.93 59.1557 121.079 58.7057 121.079 58.1056C121.079 57.5056 120.856 56.9806 120.483 56.6805C120.11 56.3805 119.513 56.1555 118.692 56.1555H111.158V60.2808C111.158 61.0308 111.158 60.2808 111.158 60.2808" fill="white"/>
<path d="M123.914 68.3062L131.15 53.9802H132.568L139.878 68.3062H137.491L135.626 64.7059H128.092L126.227 68.3062H123.914ZM129.061 62.8308H134.656L131.896 57.3554L129.061 62.8308Z" fill="white"/>
<path d="M76.8719 1.03055C76.4751 1.43569 72.3252 7.10757 70.2999 9.89287C69.2665 7.14977 67.2619 1.59673 67.0635 1.1916C66.8155 0.685182 66.3318 0.777336 66.2078 1.28375C66.0838 1.79017 65.7118 2.5498 65.2158 3.30943C64.7198 4.06905 61.7438 6.22133 59.1398 8.1204C56.5358 10.0195 54.9238 10.5259 54.5518 10.9057C54.1798 11.2855 54.6758 11.9185 55.4198 12.5516C56.1638 13.1846 57.1558 15.3369 57.8998 16.6029C58.6438 17.8689 59.0158 17.2359 59.5118 16.4763C60.0078 15.7167 60.8758 15.5901 61.9918 15.0836C63.1078 14.5772 62.6118 14.0708 61.9918 14.0708C61.3718 14.0708 60.3977 13.5644 59.6537 12.8048C58.9096 12.0451 58.9096 11.7919 59.4057 11.0323C59.9017 10.2727 63.5756 7.48077 64.6916 6.72114C65.8076 5.96151 66.0556 6.97435 66.3036 7.48077C66.502 7.8859 67.6998 10.7309 68.3198 12.208C67.7411 12.7988 66.4558 14.3493 65.4638 15.4635C64.2238 16.8561 61.2478 19.6414 60.2558 20.401C59.2638 21.1607 57.8998 22.1735 58.2718 22.5533C58.6438 22.9331 60.2558 23.1863 60.8758 24.0726C61.4958 24.9588 62.2398 28.1239 62.6118 28.1239C62.9838 28.1239 63.3558 26.4781 64.9678 23.4396C66.2574 21.0087 68.7292 17.4469 69.8039 15.9699C70.3412 17.2781 71.5521 20.3807 72.0481 21.3935C73.2233 24.0106 73.6354 26.0881 72.7674 27.2276C71.8994 28.367 69.7571 28.8278 68.4398 27.8707C67.3269 27.062 67.1998 24.7056 66.7038 24.1992C66.2078 23.6928 65.6471 24.3764 65.0271 25.769C64.4071 27.1617 63.6038 29.0102 63.4798 29.39C63.3558 29.7698 63.3558 29.8964 63.8518 30.1496C64.3478 30.4028 64.8438 30.9092 67.0758 31.9221C70.6719 33.8211 73.2017 32.5266 74.7639 30.656C76.4349 28.655 77.4919 28.1239 78.1119 27.9973C78.7319 27.8707 79.4759 27.8707 79.3519 27.3643C79.2279 26.8579 77.4919 25.212 76.9959 24.7056C76.5991 24.3005 75.9212 22.8487 75.6319 22.1735L71.734 13.4803L76.4999 7.36077C77.4505 8.20481 79.6263 10.1702 79.3325 13.0045C78.8456 17.7011 75.6953 17.0283 74.3919 16.8561C74.6518 17.6283 74.976 18.7247 76.0039 20.5276C82.23 20.8142 83.1959 14.0708 81.9559 11.0323C80.8289 7.68011 77.2262 3.64881 77.2439 3.43604C77.3467 2.19497 77.4154 0.475593 76.8719 1.03055Z" fill="white"/>
</svg>
