<svg width="85" height="80" viewBox="0 0 85 80" fill="none" xmlns="http://www.w3.org/2000/svg">
<path d="M23.2218 2.12811C12.8483 7.75521 12.7042 6.16808 24.6625 21.6065C30.5696 29.3979 35.18 35.7464 34.8919 36.035C34.7478 36.3235 27.544 35.4578 19.0436 34.3036C10.5431 33.1493 2.90708 32.4279 2.1867 32.8607C0.601866 33.8707 0.45779 46.1349 2.04262 47.1449C2.61893 47.4334 10.2549 46.8563 18.8995 45.702C27.4 44.692 34.7478 43.8263 34.8919 44.1149C35.036 44.2592 31.7222 49.0206 27.4 54.5034C23.0777 60.1305 18.1791 66.3347 16.7384 68.3547L13.8568 72.2504L19.6199 76.0018C22.7895 78.0218 25.8151 79.7532 26.3914 79.7532C27.1118 79.7532 30.7137 72.5389 34.6037 63.8819C38.4938 55.0805 41.8075 48.0106 41.9516 48.0106C42.0957 48.0106 45.4094 55.0805 49.1554 63.8819C52.9014 72.5389 56.2151 79.7532 56.6473 79.7532C58.0881 79.7532 68.4616 73.8375 69.326 72.5389C69.9023 71.6732 65.58 65.1804 59.817 57.9662C54.1981 50.8963 49.7317 44.692 50.1639 44.4035C50.4521 43.9706 57.7999 44.692 66.4445 45.8463C75.089 47.0006 82.581 47.5777 83.3014 47.1449C84.8862 46.1349 84.7421 34.015 83.1573 32.8607C82.4369 32.4279 74.8009 33.1493 66.3004 34.3036C57.7999 35.4578 50.5962 36.1793 50.1639 35.8907C49.8758 35.4578 54.1981 29.2536 59.817 21.8951C65.436 14.6809 70.0464 8.33234 70.0464 7.75521C70.0464 6.74522 59.2407 0.396698 57.5118 0.396698C56.7914 0.396698 53.3336 7.17807 49.8758 15.5466C46.2739 23.9151 42.9601 30.6964 42.5279 30.6964C42.0957 30.6964 38.7819 24.0594 35.18 15.9794C31.5782 7.89949 28.1203 1.11812 27.4 0.829552C26.6796 0.685265 24.8066 1.26241 23.2218 2.12811Z" fill="white"/>
</svg>
